<svg xmlns="http://www.w3.org/2000/svg" viewBox="0 0 2880 1800"><defs><style>.cls-1{fill:#2d2e3f;}.cls-2{fill:#d59a3d;}</style></defs><title>Artboard 1</title><g id="BG"><rect class="cls-1" width="2880" height="1800"/></g><g id="Arcadian"><path class="cls-2" d="M1630.93,1159.38v10.95h-62.85v-105h12.75v94Z"/><path class="cls-2" d="M1745.08,1143.48h-48l-11.85,26.85h-13.8l49.2-106.2h.9l49.2,106.2h-14Zm-4.65-10.35-19.35-44.25-19.5,44.25Z"/><path class="cls-2" d="M1886.68,1140c0,19-12,30.3-37.8,30.3h-36.15v-105h36.75c20.55,0,30.45,11.85,30.45,25.2,0,10-5.85,19-16,22C1877.53,1115.58,1886.68,1127.13,1886.68,1140Zm-37.35-31.2c11.25,0,18.3-6.9,18.3-16.65s-6.45-15.9-18.15-15.9h-24v32.55Zm24.9,30.6c0-11.7-7.65-20.7-24.9-20.7h-23.85v40.65h23.1C1866.58,1159.38,1874.23,1152.48,1874.23,1139.43Z"/><path class="cls-2" d="M2001.28,1085.58l-10.95,4c-3.6-8-11.85-14.25-23.55-14.25-12.45,0-20.85,6.6-20.85,15.6,0,9.3,6,13,16.65,16.8l10.35,3.6c18.45,6.3,30.15,15,30.15,31.2,0,18.45-18.75,28.8-36.75,28.8-17.4,0-32.55-10-37.65-24.6l10.65-4.65a28.59,28.59,0,0,0,27,18.15c12.45,0,24.15-6.15,24.15-17.7s-8.7-15.75-20.4-19.8l-10.65-3.75c-15.15-5.25-26.25-12.6-26.25-28s14.7-26.7,33.6-26.7C1984,1064.28,1996.33,1074.63,2001.28,1085.58Z"/><path class="cls-2" d="M423.86,941.38l-131.6-.2L272.6,987.55l-68.4-.1L329,707.64l58.8.09,124,280.18-68.4-.1Zm-21.92-52.43L358.49,785.68,314.74,888.82Z"/><path class="cls-2" d="M690.5,778.17l-.09,60.4c-4.8-1.21-10.4-1.22-14.4-1.22-38.4-.06-69.24,27.5-72.5,65.89l-.12,84.8-63.2-.09.31-208,63.2.09-.08,50.8c9.65-31.19,33.68-53.95,70.48-53.89C679.7,777,685.3,777,690.5,778.17Z"/><path class="cls-2" d="M906.83,826.49l-48,22.73C848.41,840.41,840,832.39,818,832.36c-24,0-48.43,18.33-48.48,52.33,0,33.6,24.32,51.24,48.32,51.27,22,0,30.41-7.15,40.82-15.94l48.77,22.87C887,976.46,855.79,991.62,817,991.56c-46.4-.07-108.75-33.36-108.64-107,.11-72.4,62.56-107.91,109-107.84C855.31,776.82,887.28,792.86,906.83,826.49Z"/><path class="cls-2" d="M1146.89,780.85l-.31,208-63.2-.09,0-20.8c-2.81,7.2-21.64,24.77-53.64,24.72-47.6-.07-102.35-34.15-102.24-108.55.11-71.6,55-107.12,102.56-107,32,0,50.77,18.47,53.57,22.88l0-19.2Zm-60.55,103.51c0-33.6-21.12-51.63-47.12-51.67-27.2,0-50.43,18.33-50.48,51.52-.05,34.4,23.12,52.83,50.32,52.87C1065.06,937.13,1086.29,919.16,1086.34,884.36Z"/><path class="cls-2" d="M1400.6,706.42l-.15,101.6-.27,181.2-63.2-.09,0-20.8c-2.81,7.2-21.64,24.77-53.64,24.72C1235.78,993,1181,958.9,1181.14,884.5c.11-71.6,55-107.12,102.56-107,32,0,50.77,18.47,53.57,22.88l.14-94Zm-60.66,178.31c0-33.6-21.12-51.63-47.12-51.67-27.2,0-50.43,18.33-50.48,51.52-.05,34.4,23.12,52.83,50.32,52.87C1318.66,937.5,1339.89,919.53,1339.94,884.73Z"/><path class="cls-2" d="M1504.18,989.37l-63.2-.09.31-208,63.2.09Zm.34-229.6-63.2-.09.08-53.2,63.2.09Z"/><path class="cls-2" d="M1758.08,781.75l-.31,208-63.2-.09,0-20.8c-2.81,7.2-21.64,24.77-53.64,24.72-47.6-.07-102.35-34.15-102.24-108.55.11-71.6,55-107.12,102.56-107,32,0,50.77,18.47,53.57,22.88l0-19.2Zm-60.55,103.51c0-33.6-21.12-51.63-47.12-51.67-27.2,0-50.43,18.33-50.48,51.52-.05,34.4,23.12,52.83,50.32,52.87C1676.25,938,1697.48,920.06,1697.53,885.26Z"/><path class="cls-2" d="M2004.75,870.92l-.18,119.2-63.2-.09.17-114.8c0-31.6-10.74-41.62-30.74-41.64-28.4,0-44.84,27.53-48.86,39.53l-.17,116.8-63.2-.09.31-208,63.2.09-.05,36c4-10,25.26-39.16,64.46-39.1C1965.28,778.86,2004.84,804.92,2004.75,870.92Z"/><path class="cls-2" d="M2246.21,843.45l-76.4,40.73,76.4,39.86V989.3l-166.8-94.61V873.23l166.8-94.61Z"/><path class="cls-2" d="M2681,873.23v21.46L2514.2,989.3V924l76.4-39.86-76.4-40.73V778.62Z"/><path class="cls-2" d="M2354.37,989.47h-54.45l111.52-211.14h54.45Z"/></g></svg>